<mxfile host="app.diagrams.net" agent="Mozilla/5.0 (Windows NT 10.0; Win64; x64) AppleWebKit/537.36 (KHTML, like Gecko) Chrome/129.0.0.0 Safari/537.36" version="24.7.14">
  <diagram name="Page-1" id="FYzi5OhFpOnAnbyRONz0">
    <mxGraphModel dx="12050" dy="3710" grid="1" gridSize="10" guides="1" tooltips="1" connect="1" arrows="1" fold="1" page="1" pageScale="1" pageWidth="850" pageHeight="1100" math="0" shadow="0">
      <root>
        <mxCell id="0" />
        <mxCell id="1" parent="0" />
        <mxCell id="NPcWio27WGB_UfENEdnR-1" value="" style="rounded=0;whiteSpace=wrap;html=1;fillColor=none;" vertex="1" parent="1">
          <mxGeometry x="-1040" y="250" width="3100" height="1320" as="geometry" />
        </mxCell>
        <mxCell id="NPcWio27WGB_UfENEdnR-2" value="" style="rounded=0;whiteSpace=wrap;html=1;fillColor=none;" vertex="1" parent="1">
          <mxGeometry x="-1110" y="115" width="3270" height="1565" as="geometry" />
        </mxCell>
        <mxCell id="NPcWio27WGB_UfENEdnR-3" value="&lt;b style=&quot;font-size: 80px;&quot;&gt;Collections Framework&lt;/b&gt;" style="text;html=1;align=center;verticalAlign=middle;whiteSpace=wrap;rounded=0;fontSize=80;" vertex="1" parent="1">
          <mxGeometry x="-70" y="-30" width="1260" height="180" as="geometry" />
        </mxCell>
        <mxCell id="NPcWio27WGB_UfENEdnR-4" value="&lt;b style=&quot;font-size: 60px;&quot;&gt;Collection API&lt;/b&gt;" style="text;html=1;align=center;verticalAlign=middle;whiteSpace=wrap;rounded=0;fontSize=60;" vertex="1" parent="1">
          <mxGeometry x="-35" y="160" width="1110" height="90" as="geometry" />
        </mxCell>
        <mxCell id="NPcWio27WGB_UfENEdnR-5" value="" style="rounded=0;whiteSpace=wrap;html=1;fillColor=none;fontSize=40;" vertex="1" parent="1">
          <mxGeometry x="-880" y="430" width="460" height="720" as="geometry" />
        </mxCell>
        <mxCell id="NPcWio27WGB_UfENEdnR-6" value="&lt;b style=&quot;font-size: 40px;&quot;&gt;Collection (Interface)&lt;/b&gt;" style="text;html=1;align=center;verticalAlign=middle;whiteSpace=wrap;rounded=0;fontSize=40;" vertex="1" parent="1">
          <mxGeometry x="-870" y="380" width="460" height="30" as="geometry" />
        </mxCell>
        <mxCell id="NPcWio27WGB_UfENEdnR-8" value="&lt;b style=&quot;font-size: 40px;&quot;&gt;Collections (Class)&lt;/b&gt;" style="text;html=1;align=center;verticalAlign=middle;whiteSpace=wrap;rounded=0;fontSize=40;" vertex="1" parent="1">
          <mxGeometry x="1460" y="360" width="430" height="60" as="geometry" />
        </mxCell>
        <mxCell id="NPcWio27WGB_UfENEdnR-9" value="" style="rounded=0;whiteSpace=wrap;html=1;fillColor=none;fontSize=40;" vertex="1" parent="1">
          <mxGeometry x="1468.75" y="430" width="460" height="680" as="geometry" />
        </mxCell>
        <mxCell id="NPcWio27WGB_UfENEdnR-10" value="add()" style="text;html=1;align=center;verticalAlign=middle;whiteSpace=wrap;rounded=0;fontSize=40;" vertex="1" parent="1">
          <mxGeometry x="-790" y="510" width="257.5" height="30" as="geometry" />
        </mxCell>
        <mxCell id="NPcWio27WGB_UfENEdnR-12" value="remove()" style="text;html=1;align=center;verticalAlign=middle;whiteSpace=wrap;rounded=0;fontSize=40;" vertex="1" parent="1">
          <mxGeometry x="-790" y="600" width="257.5" height="30" as="geometry" />
        </mxCell>
        <mxCell id="NPcWio27WGB_UfENEdnR-13" value="size()&lt;span style=&quot;color: rgba(0, 0, 0, 0); font-family: monospace; font-size: 40px; text-align: start; text-wrap: nowrap;&quot;&gt;%3CmxGraphModel%3E%3Croot%3E%3CmxCell%20id%3D%220%22%2F%3E%3CmxCell%20id%3D%221%22%20parent%3D%220%22%2F%3E%3CmxCell%20id%3D%222%22%20value%3D%22remove()%22%20style%3D%22text%3Bhtml%3D1%3Balign%3Dcenter%3BverticalAlign%3Dmiddle%3BwhiteSpace%3Dwrap%3Brounded%3D0%3BfontSize%3D25%3B%22%20vertex%3D%221%22%20parent%3D%221%22%3E%3CmxGeometry%20x%3D%22-363.75%22%20y%3D%22420%22%20width%3D%22257.5%22%20height%3D%2230%22%20as%3D%22geometry%22%2F%3E%3C%2FmxCell%3E%3C%2Froot%3E%3C%2FmxGraphModel%3E&lt;/span&gt;" style="text;html=1;align=center;verticalAlign=middle;whiteSpace=wrap;rounded=0;fontSize=40;" vertex="1" parent="1">
          <mxGeometry x="-790" y="650" width="257.5" height="30" as="geometry" />
        </mxCell>
        <mxCell id="NPcWio27WGB_UfENEdnR-14" value="isEmpty()" style="text;html=1;align=center;verticalAlign=middle;whiteSpace=wrap;rounded=0;fontSize=40;" vertex="1" parent="1">
          <mxGeometry x="-770" y="740" width="257.5" height="30" as="geometry" />
        </mxCell>
        <mxCell id="NPcWio27WGB_UfENEdnR-15" value="contains()" style="text;html=1;align=center;verticalAlign=middle;whiteSpace=wrap;rounded=0;fontSize=40;" vertex="1" parent="1">
          <mxGeometry x="-770" y="860" width="257.5" height="30" as="geometry" />
        </mxCell>
        <mxCell id="NPcWio27WGB_UfENEdnR-16" value="clear()" style="text;html=1;align=center;verticalAlign=middle;whiteSpace=wrap;rounded=0;fontSize=40;" vertex="1" parent="1">
          <mxGeometry x="-778.75" y="960" width="257.5" height="30" as="geometry" />
        </mxCell>
        <mxCell id="NPcWio27WGB_UfENEdnR-17" value="iterator()" style="text;html=1;align=center;verticalAlign=middle;whiteSpace=wrap;rounded=0;fontSize=40;" vertex="1" parent="1">
          <mxGeometry x="-768.75" y="1060" width="257.5" height="30" as="geometry" />
        </mxCell>
        <mxCell id="NPcWio27WGB_UfENEdnR-18" value="sort()" style="text;html=1;align=center;verticalAlign=middle;whiteSpace=wrap;rounded=0;fontSize=40;" vertex="1" parent="1">
          <mxGeometry x="1551.25" y="450" width="257.5" height="60" as="geometry" />
        </mxCell>
        <mxCell id="NPcWio27WGB_UfENEdnR-19" value="max()" style="text;html=1;align=center;verticalAlign=middle;whiteSpace=wrap;rounded=0;fontSize=40;" vertex="1" parent="1">
          <mxGeometry x="1551.25" y="540" width="257.5" height="50" as="geometry" />
        </mxCell>
        <mxCell id="NPcWio27WGB_UfENEdnR-20" value="min()" style="text;html=1;align=center;verticalAlign=middle;whiteSpace=wrap;rounded=0;fontSize=40;" vertex="1" parent="1">
          <mxGeometry x="1551.25" y="620" width="257.5" height="65" as="geometry" />
        </mxCell>
        <mxCell id="NPcWio27WGB_UfENEdnR-21" value="replaceAll()" style="text;html=1;align=center;verticalAlign=middle;whiteSpace=wrap;rounded=0;fontSize=40;" vertex="1" parent="1">
          <mxGeometry x="1560" y="730" width="257.5" height="50" as="geometry" />
        </mxCell>
        <mxCell id="NPcWio27WGB_UfENEdnR-22" value="binarySearch()" style="text;html=1;align=center;verticalAlign=middle;whiteSpace=wrap;rounded=0;fontSize=40;" vertex="1" parent="1">
          <mxGeometry x="1570" y="830" width="257.5" height="60" as="geometry" />
        </mxCell>
        <mxCell id="NPcWio27WGB_UfENEdnR-23" value="reverse()" style="text;html=1;align=center;verticalAlign=middle;whiteSpace=wrap;rounded=0;fontSize=40;" vertex="1" parent="1">
          <mxGeometry x="1570" y="920" width="257.5" height="50" as="geometry" />
        </mxCell>
        <mxCell id="NPcWio27WGB_UfENEdnR-24" value="shuffle()" style="text;html=1;align=center;verticalAlign=middle;whiteSpace=wrap;rounded=0;fontSize=40;" vertex="1" parent="1">
          <mxGeometry x="1570" y="1020" width="257.5" height="70" as="geometry" />
        </mxCell>
        <mxCell id="NPcWio27WGB_UfENEdnR-27" value="&lt;b style=&quot;font-size: 47px;&quot;&gt;Data Structures&lt;/b&gt;" style="text;html=1;align=center;verticalAlign=middle;whiteSpace=wrap;rounded=0;fontSize=47;" vertex="1" parent="1">
          <mxGeometry x="190" y="370" width="570" height="80" as="geometry" />
        </mxCell>
        <mxCell id="NPcWio27WGB_UfENEdnR-28" value="" style="rounded=1;whiteSpace=wrap;html=1;fillColor=none;" vertex="1" parent="1">
          <mxGeometry x="-180" y="450" width="1400" height="450" as="geometry" />
        </mxCell>
        <mxCell id="NPcWio27WGB_UfENEdnR-30" value="&lt;b style=&quot;font-size: 39px;&quot;&gt;ArrayList,LinkedList,Vector&lt;/b&gt;" style="text;html=1;align=center;verticalAlign=middle;whiteSpace=wrap;rounded=0;fontSize=39;" vertex="1" parent="1">
          <mxGeometry x="330" y="465" width="640" height="100" as="geometry" />
        </mxCell>
        <mxCell id="NPcWio27WGB_UfENEdnR-33" value="&lt;b style=&quot;font-size: 39px;&quot;&gt;PriorityQueue, ArrayDeque,&amp;nbsp;&lt;/b&gt;&lt;b style=&quot;background-color: initial;&quot;&gt;ArrayBlockingQueue,&amp;nbsp;&lt;/b&gt;&lt;b style=&quot;background-color: initial;&quot;&gt;LinkedBlockingQueue&lt;/b&gt;" style="text;html=1;align=center;verticalAlign=middle;whiteSpace=wrap;rounded=0;fontSize=39;" vertex="1" parent="1">
          <mxGeometry x="260" y="640" width="850" height="30" as="geometry" />
        </mxCell>
        <mxCell id="NPcWio27WGB_UfENEdnR-37" value="&lt;b style=&quot;font-size: 39px;&quot;&gt;HashSet, TreeSet,&amp;nbsp;&lt;/b&gt;&lt;b style=&quot;background-color: initial;&quot;&gt;LinkedHashSet&lt;/b&gt;" style="text;html=1;align=center;verticalAlign=middle;whiteSpace=wrap;rounded=0;fontSize=39;" vertex="1" parent="1">
          <mxGeometry x="360" y="700" width="730" height="180" as="geometry" />
        </mxCell>
        <mxCell id="NPcWio27WGB_UfENEdnR-74" style="edgeStyle=orthogonalEdgeStyle;rounded=0;orthogonalLoop=1;jettySize=auto;html=1;entryX=0.5;entryY=1;entryDx=0;entryDy=0;fontStyle=1;fontSize=17;strokeWidth=8;" edge="1" parent="1" source="NPcWio27WGB_UfENEdnR-39" target="NPcWio27WGB_UfENEdnR-66">
          <mxGeometry relative="1" as="geometry">
            <Array as="points">
              <mxPoint x="1335" y="1325" />
            </Array>
          </mxGeometry>
        </mxCell>
        <mxCell id="NPcWio27WGB_UfENEdnR-39" value="&lt;b style=&quot;font-size: 39px;&quot;&gt;HashMap, TreeMap,&amp;nbsp;&lt;/b&gt;&lt;b style=&quot;background-color: initial;&quot;&gt;LinkedHashMap&lt;/b&gt;" style="text;html=1;align=center;verticalAlign=middle;whiteSpace=wrap;rounded=0;fontSize=39;" vertex="1" parent="1">
          <mxGeometry x="370" y="1280" width="840" height="90" as="geometry" />
        </mxCell>
        <mxCell id="NPcWio27WGB_UfENEdnR-49" value="&lt;b&gt;List&lt;/b&gt;" style="text;html=1;align=center;verticalAlign=middle;whiteSpace=wrap;rounded=0;fontSize=39;" vertex="1" parent="1">
          <mxGeometry x="-240" y="470" width="330" height="100" as="geometry" />
        </mxCell>
        <mxCell id="NPcWio27WGB_UfENEdnR-51" value="&lt;b&gt;Queue&lt;/b&gt;" style="text;html=1;align=center;verticalAlign=middle;whiteSpace=wrap;rounded=0;fontSize=39;" vertex="1" parent="1">
          <mxGeometry x="-240" y="620" width="330" height="100" as="geometry" />
        </mxCell>
        <mxCell id="NPcWio27WGB_UfENEdnR-53" value="&lt;b&gt;Set&lt;/b&gt;" style="text;html=1;align=center;verticalAlign=middle;whiteSpace=wrap;rounded=0;fontSize=39;" vertex="1" parent="1">
          <mxGeometry x="-230" y="740" width="330" height="100" as="geometry" />
        </mxCell>
        <mxCell id="NPcWio27WGB_UfENEdnR-54" value="&lt;b&gt;Map&lt;/b&gt;" style="text;html=1;align=center;verticalAlign=middle;whiteSpace=wrap;rounded=0;fontSize=39;" vertex="1" parent="1">
          <mxGeometry x="-130" y="1270" width="330" height="100" as="geometry" />
        </mxCell>
        <mxCell id="NPcWio27WGB_UfENEdnR-57" value="" style="endArrow=classic;html=1;rounded=0;strokeWidth=3;entryX=0;entryY=0.5;entryDx=0;entryDy=0;" edge="1" parent="1" target="NPcWio27WGB_UfENEdnR-30">
          <mxGeometry width="50" height="50" relative="1" as="geometry">
            <mxPoint x="10" y="520" as="sourcePoint" />
            <mxPoint x="340" y="515" as="targetPoint" />
          </mxGeometry>
        </mxCell>
        <mxCell id="NPcWio27WGB_UfENEdnR-58" value="" style="endArrow=classic;html=1;rounded=0;strokeWidth=3;" edge="1" parent="1">
          <mxGeometry width="50" height="50" relative="1" as="geometry">
            <mxPoint x="20" y="672.5" as="sourcePoint" />
            <mxPoint x="130" y="673" as="targetPoint" />
          </mxGeometry>
        </mxCell>
        <mxCell id="NPcWio27WGB_UfENEdnR-60" value="" style="endArrow=classic;html=1;rounded=0;strokeWidth=3;" edge="1" parent="1">
          <mxGeometry width="50" height="50" relative="1" as="geometry">
            <mxPoint x="140" y="1330" as="sourcePoint" />
            <mxPoint x="410" y="1330" as="targetPoint" />
          </mxGeometry>
        </mxCell>
        <mxCell id="NPcWio27WGB_UfENEdnR-61" value="" style="endArrow=classic;html=1;rounded=0;strokeWidth=3;" edge="1" parent="1">
          <mxGeometry width="50" height="50" relative="1" as="geometry">
            <mxPoint x="40" y="800" as="sourcePoint" />
            <mxPoint x="310" y="800" as="targetPoint" />
          </mxGeometry>
        </mxCell>
        <mxCell id="NPcWio27WGB_UfENEdnR-64" style="edgeStyle=orthogonalEdgeStyle;rounded=0;orthogonalLoop=1;jettySize=auto;html=1;exitX=0.182;exitY=0.499;exitDx=0;exitDy=0;exitPerimeter=0;strokeWidth=8;" edge="1" parent="1">
          <mxGeometry relative="1" as="geometry">
            <mxPoint x="1220" y="800" as="sourcePoint" />
            <mxPoint x="1470" y="800" as="targetPoint" />
          </mxGeometry>
        </mxCell>
        <mxCell id="NPcWio27WGB_UfENEdnR-65" value="&lt;b style=&quot;font-size: 42px;&quot;&gt;&lt;font style=&quot;font-size: 42px;&quot;&gt;Operations&lt;/font&gt;&lt;/b&gt;" style="text;html=1;align=center;verticalAlign=middle;whiteSpace=wrap;rounded=0;fontSize=42;" vertex="1" parent="1">
          <mxGeometry x="-460" y="680" width="330" height="175" as="geometry" />
        </mxCell>
        <mxCell id="NPcWio27WGB_UfENEdnR-66" value="&lt;span style=&quot;font-size: 44px;&quot;&gt;&lt;font style=&quot;font-size: 44px;&quot;&gt;Algorithm&lt;/font&gt;&lt;/span&gt;" style="text;html=1;align=center;verticalAlign=middle;whiteSpace=wrap;rounded=0;fontSize=44;fontStyle=1" vertex="1" parent="1">
          <mxGeometry x="1170" y="700" width="330" height="107.5" as="geometry" />
        </mxCell>
        <mxCell id="NPcWio27WGB_UfENEdnR-68" style="edgeStyle=orthogonalEdgeStyle;rounded=0;orthogonalLoop=1;jettySize=auto;html=1;exitX=0.182;exitY=0.499;exitDx=0;exitDy=0;exitPerimeter=0;strokeWidth=8;" edge="1" parent="1">
          <mxGeometry relative="1" as="geometry">
            <mxPoint x="-175" y="810" as="sourcePoint" />
            <mxPoint x="-425" y="810" as="targetPoint" />
          </mxGeometry>
        </mxCell>
        <mxCell id="NPcWio27WGB_UfENEdnR-69" value="put(), get(), remove()&#xa;containsKey(), containsValue()&#xa;keySet(), values(), entrySet()" style="rounded=0;whiteSpace=wrap;html=1;fillColor=none;fontSize=40;" vertex="1" parent="1">
          <mxGeometry x="-860" y="1210" width="470" height="300" as="geometry" />
        </mxCell>
        <mxCell id="NPcWio27WGB_UfENEdnR-72" style="edgeStyle=orthogonalEdgeStyle;rounded=0;orthogonalLoop=1;jettySize=auto;html=1;strokeWidth=8;" edge="1" parent="1" source="NPcWio27WGB_UfENEdnR-54">
          <mxGeometry relative="1" as="geometry">
            <mxPoint x="-140" y="1320" as="sourcePoint" />
            <mxPoint x="-390" y="1320" as="targetPoint" />
            <Array as="points" />
          </mxGeometry>
        </mxCell>
        <mxCell id="NPcWio27WGB_UfENEdnR-73" value="&lt;b style=&quot;font-size: 42px;&quot;&gt;&lt;font style=&quot;font-size: 42px;&quot;&gt;Operations&lt;/font&gt;&lt;/b&gt;" style="text;html=1;align=center;verticalAlign=middle;whiteSpace=wrap;rounded=0;fontSize=42;" vertex="1" parent="1">
          <mxGeometry x="-400" y="1180" width="330" height="175" as="geometry" />
        </mxCell>
      </root>
    </mxGraphModel>
  </diagram>
</mxfile>
